<?xml version="1.0" standalone="no"?>
<!DOCTYPE svg PUBLIC "-//W3C//DTD SVG 20010904//EN"
 "http://www.w3.org/TR/2001/REC-SVG-20010904/DTD/svg10.dtd">
<svg version="1.0" xmlns="http://www.w3.org/2000/svg"
 width="499.000000pt" height="499.000000pt" viewBox="0 0 499.000000 499.000000"
 preserveAspectRatio="xMidYMid meet">

<g transform="translate(0.000000,499.000000) scale(0.100000,-0.100000)"
fill="#000000" stroke="none">
<path d="M2555 4849 c-121 -13 -184 -34 -558 -181 -118 -46 -268 -151 -387
-269 -106 -106 -232 -258 -304 -365 -23 -34 -63 -77 -93 -99 -145 -105 -187
-183 -254 -470 -40 -169 -47 -263 -25 -339 l17 -57 -41 -61 c-56 -84 -72 -147
-71 -276 0 -145 29 -246 95 -335 18 -25 21 -26 27 -10 5 14 8 11 13 -14 4 -18
18 -41 32 -52 28 -22 44 -60 44 -105 0 -19 9 -62 20 -96 11 -34 20 -64 20 -66
0 -8 -36 10 -55 27 l-21 19 9 -88 c8 -91 2 -214 -15 -294 -6 -32 -26 -69 -59
-110 -27 -35 -49 -71 -49 -81 0 -46 46 -83 146 -117 32 -11 88 -39 125 -60 84
-51 184 -74 290 -66 l75 5 75 -75 c182 -185 389 -339 525 -392 156 -60 195
-67 379 -67 191 0 265 15 400 80 213 102 566 387 690 556 26 35 52 67 59 71 6
4 63 0 126 -8 198 -25 214 -26 256 -15 49 13 94 46 94 69 0 8 -29 44 -64 78
-76 73 -90 108 -91 222 0 71 3 85 18 94 13 7 17 17 13 34 -4 13 -2 24 4 24 16
0 42 59 75 170 23 80 36 107 53 116 42 21 60 46 88 117 23 62 28 91 32 203 3
97 0 153 -12 211 -23 112 -21 124 19 163 39 38 44 60 16 77 -15 9 -20 29 -25
105 -11 148 -36 307 -62 390 -25 77 -78 161 -144 223 -18 17 -60 90 -101 174
-187 389 -378 585 -759 780 -266 137 -448 182 -645 160z m-180 -1487 c18 -15
42 -35 53 -44 12 -10 37 -39 57 -65 33 -46 104 -118 209 -211 45 -40 49 -42
69 -29 27 18 28 80 2 99 -5 4 2 8 17 8 15 0 29 4 32 9 14 22 -11 76 -70 149
-64 80 -75 102 -51 102 31 0 207 -153 207 -180 0 -18 144 -237 181 -275 21
-23 39 -46 39 -52 0 -7 9 -14 19 -18 11 -3 22 -12 25 -20 3 -10 -9 -17 -47
-25 -118 -24 -222 -93 -253 -168 l-11 -27 -7 24 c-5 15 -4 26 4 31 8 5 7 9 -5
13 -14 6 -14 9 0 30 14 22 12 57 -4 57 -14 0 -41 -74 -60 -163 -7 -29 -5 -40
5 -44 8 -3 14 -14 14 -24 0 -13 5 -17 17 -12 11 4 14 3 9 -5 -5 -8 -2 -10 8
-6 9 3 16 13 16 20 0 51 83 156 146 184 68 31 80 27 46 -17 -56 -71 -68 -159
-34 -237 l22 -49 46 7 c26 3 107 6 181 6 l133 0 20 33 c15 23 20 50 20 100 0
67 0 68 23 56 12 -7 51 -41 86 -76 59 -59 65 -63 81 -48 17 15 50 11 50 -6 0
-5 5 -9 11 -9 7 0 24 -13 39 -28 24 -26 28 -39 34 -125 15 -201 3 -333 -41
-442 -8 -22 -19 -49 -23 -60 -25 -62 -61 -135 -70 -140 -6 -3 -10 -14 -10 -24
0 -10 -13 -35 -30 -56 -16 -20 -32 -46 -36 -58 -18 -55 -156 -216 -264 -307
-30 -25 -65 -56 -79 -70 -34 -33 -97 -80 -108 -80 -5 0 -21 -12 -35 -27 -37
-39 -67 -63 -72 -60 -3 1 -15 -8 -29 -21 -14 -13 -31 -23 -38 -22 -28 4 -50 0
-45 -8 3 -5 -6 -15 -19 -22 -20 -10 -33 -11 -62 -2 -20 6 -40 9 -45 6 -4 -3
-8 0 -8 5 0 6 -13 11 -28 11 -16 0 -32 3 -36 7 -4 4 -19 7 -34 8 -16 0 -26 5
-24 12 1 7 -4 13 -12 13 -8 0 -21 3 -30 6 -12 4 -16 0 -16 -15 0 -19 -6 -21
-59 -21 -54 0 -59 -2 -65 -25 -6 -24 -10 -25 -74 -25 -37 0 -90 -3 -118 -6
-39 -5 -54 -3 -66 10 -9 9 -23 16 -30 16 -23 0 -109 48 -96 53 7 3 1 6 -14 6
-15 1 -31 7 -35 14 -4 7 -23 23 -41 36 -63 44 -358 349 -371 383 -2 5 -23 39
-47 75 -24 36 -44 72 -44 79 0 7 -6 17 -13 21 -18 12 -107 169 -107 191 0 9
-7 27 -15 39 -8 12 -32 84 -52 160 -34 127 -37 149 -36 268 0 83 6 155 17 199
9 37 18 89 21 115 3 25 8 60 12 76 4 17 6 33 5 37 -1 4 3 19 8 34 11 27 21 99
24 166 1 21 5 40 8 43 3 4 4 18 2 33 -2 15 -5 36 -7 47 -1 11 -6 25 -9 31 -12
19 43 174 62 174 5 0 21 11 35 26 28 28 100 63 129 64 15 0 14 -5 -12 -31 -45
-46 -69 -96 -54 -111 10 -10 22 -7 60 14 117 66 361 94 532 63 52 -10 108 -18
125 -19 69 -2 24 72 -74 120 -91 44 -85 49 78 51 100 2 106 1 136 -25z m794
-683 c21 -34 -3 -69 -46 -69 -26 0 -36 6 -45 25 -9 21 -8 28 7 45 24 27 67 26
84 -1z"/>
<path d="M1800 2891 c-130 -41 -281 -154 -295 -218 -8 -40 4 -42 41 -8 31 29
124 92 150 102 14 5 16 3 9 -13 -13 -29 -18 -100 -10 -150 5 -35 11 -45 28
-48 94 -18 280 -46 316 -49 43 -2 44 -1 67 43 33 64 33 151 -1 214 -16 29 -20
46 -12 46 18 0 77 -38 98 -63 26 -31 69 -122 69 -146 0 -12 4 -21 10 -21 6 0
8 18 6 43 -3 23 -5 42 -6 42 -1 0 -3 7 -5 15 -6 28 -55 124 -55 108 0 -4 -12
5 -27 19 -102 95 -248 127 -383 84z m74 -123 c8 -22 6 -32 -9 -48 -22 -24 -42
-25 -67 -3 -38 34 -15 86 37 81 22 -2 32 -10 39 -30z"/>
<path d="M2287 2058 c-9 -15 -12 -42 -9 -76 3 -44 10 -59 38 -87 96 -96 363
-92 423 5 24 41 36 113 21 140 -14 27 -53 26 -65 -2 -17 -39 -52 -49 -145 -43
-175 11 -204 19 -214 60 -8 31 -31 32 -49 3z"/>
<path d="M1807 1813 c-4 -3 -7 -19 -7 -34 0 -22 6 -29 29 -34 23 -5 35 -21 74
-98 25 -51 63 -112 83 -137 46 -55 151 -145 194 -166 17 -9 34 -22 36 -28 2
-6 27 -20 54 -31 28 -11 50 -23 50 -27 0 -4 7 -5 15 -2 8 4 15 2 15 -3 0 -26
292 -38 325 -13 6 4 25 11 43 15 19 4 48 16 65 27 18 11 64 38 102 60 70 41
184 143 185 165 0 6 6 18 14 26 8 7 27 37 42 66 18 33 33 50 42 46 22 -8 52
14 52 38 0 14 -11 29 -29 40 -39 23 -50 22 -83 -10 -40 -38 -100 -43 -432 -33
-267 8 -408 21 -611 55 -107 18 -142 31 -172 62 -21 22 -71 31 -86 16z m476
-174 c39 -6 83 -13 97 -15 32 -4 147 -12 274 -19 93 -5 126 -14 126 -38 0 -7
-70 -8 -212 -4 -163 5 -234 11 -303 27 -49 12 -102 24 -117 27 -27 5 -34 13
-23 25 10 9 85 8 158 -3z m236 -359 c45 11 66 6 41 -10 -22 -14 -113 -12 -149
3 -45 19 -27 28 22 11 33 -12 51 -13 86 -4z"/>
<path d="M2030 1357 c0 -17 115 -131 176 -175 22 -16 58 -35 80 -43 21 -7 44
-17 51 -22 16 -12 171 -27 279 -27 97 0 154 13 154 36 0 8 6 14 14 14 30 0
228 171 214 185 -3 3 -43 -19 -89 -50 -212 -142 -369 -183 -520 -135 -90 29
-153 64 -233 129 -38 31 -82 66 -97 79 -21 17 -29 20 -29 9z"/>
<path d="M2483 983 c9 -2 25 -2 35 0 9 3 1 5 -18 5 -19 0 -27 -2 -17 -5z"/>
</g>
</svg>
