<?xml version="1.0" encoding="UTF-8"?>
<svg width="128px" height="128px" viewBox="0 0 128 128" version="1.1" xmlns="http://www.w3.org/2000/svg" xmlns:xlink="http://www.w3.org/1999/xlink">
    <!-- Generator: Sketch 52.5 (67469) - http://www.bohemiancoding.com/sketch -->
    <title>Classic-Virtual-Reality-Goggles</title>
    <desc>Created with Sketch.</desc>
    <g id="Classic-Virtual-Reality-Goggles" stroke="none" stroke-width="1" fill-rule="evenodd">
        <path d="M110.640272,52.9433 C114.058712,56.7816034 115.906,61.0778478 115.906,65.579 C115.906,81.6266224 92.6290414,94.017 64.246,94.017 C35.8544992,94.017 12.576,81.6275255 12.576,65.579 C12.576,61.0776915 14.4234159,56.7813049 17.8420843,52.9429 L11.0004,52.9429 C9.8958305,52.9429 9.0004,52.0474695 9.0004,50.9429 C9.0004,49.8383305 9.8958305,48.9429 11.0004,48.9429 L22.7724441,48.9429 C22.8453372,48.938927 22.9183192,48.9389399 22.991044,48.9429 L23.3604,48.9429 C24.4649695,48.9429 25.3604,49.8383305 25.3604,50.9429 L25.3604,63.3039 C25.3604,64.4084695 24.4649695,65.3039 23.3604,65.3039 C22.2558305,65.3039 21.3604,64.4084695 21.3604,63.3039 L21.3604,55.0257039 C18.2158311,58.3266854 16.576,61.9225993 16.576,65.579 C16.576,78.7362508 37.7713228,90.017 64.246,90.017 C90.7122287,90.017 111.906,78.7355077 111.906,65.579 C111.906,61.933545 110.275972,58.3482151 107.1498,55.055357 L107.1498,63.3043 C107.1498,64.4088695 106.254369,65.3043 105.1498,65.3043 C104.045231,65.3043 103.1498,64.4088695 103.1498,63.3043 L103.1498,50.9433 C103.1498,49.8387305 104.045231,48.9433 105.1498,48.9433 L105.483842,48.9433 C105.561284,48.9388079 105.63903,48.9387923 105.716662,48.9433 L117.5108,48.9433 C118.615369,48.9433 119.5108,49.8387305 119.5108,50.9433 C119.5108,52.0478695 118.615369,52.9433 117.5108,52.9433 L110.640272,52.9433 Z M85.3011,33.9996 C91.4928577,33.9996 96.5121,39.0192187 96.5121,45.2116 L96.5121,62.1986 C96.5121,68.3904813 91.4923577,73.4106 85.3001,73.4106 L75.4121,73.4106 C73.3914648,73.4106 71.5235259,72.3323519 70.5120114,70.5815345 L65.6800008,62.2115162 C65.0417284,61.1058725 63.446925,61.1058725 62.8081886,62.2115345 L57.9765221,70.5809566 C56.9663833,72.3320701 55.0979562,73.4106 53.0761,73.4106 L43.1881,73.4106 C36.9963423,73.4106 31.9771,68.3909813 31.9771,62.1986 L31.9771,45.2116 C31.9771,39.0192187 36.9963423,33.9996 43.1881,33.9996 L85.3011,33.9996 Z M85.3011,37.9996 L43.1881,37.9996 C39.2055485,37.9996 35.9771,41.2282906 35.9771,45.2116 L35.9771,62.1986 C35.9771,66.1819094 39.2055485,69.4106 43.1881,69.4106 L53.0761,69.4106 C53.6687727,69.4106 54.2160807,69.0946722 54.5120114,68.5816655 L59.3443083,60.2111513 C61.523275,56.4393275 66.9664716,56.4393275 69.1441886,60.2116655 L73.9758596,68.5810958 C74.2724094,69.09439 74.8202063,69.4106 75.4121,69.4106 L85.3001,69.4106 C89.2831516,69.4106 92.5121,66.1814095 92.5121,62.1986 L92.5121,45.2116 C92.5121,41.2282906 89.2836515,37.9996 85.3011,37.9996 Z M88.057,53.7047 C88.057,58.3073626 84.3264764,62.0387 79.724,62.0387 C75.1215236,62.0387 71.391,58.3073626 71.391,53.7047 C71.391,49.1028339 75.121727,45.3717 79.724,45.3717 C84.326273,45.3717 88.057,49.1028339 88.057,53.7047 Z M84.057,53.7047 C84.057,51.3118753 82.1170363,49.3717 79.724,49.3717 C77.3309637,49.3717 75.391,51.3118753 75.391,53.7047 C75.391,56.0984189 77.3308579,58.0387 79.724,58.0387 C82.1171421,58.0387 84.057,56.0984189 84.057,53.7047 Z M57.098,53.7047 C57.098,58.3073626 53.3674764,62.0387 48.765,62.0387 C44.1625236,62.0387 40.432,58.3073626 40.432,53.7047 C40.432,49.1028339 44.162727,45.3717 48.765,45.3717 C53.367273,45.3717 57.098,49.1028339 57.098,53.7047 Z M53.098,53.7047 C53.098,51.3118753 51.1580363,49.3717 48.765,49.3717 C46.3719637,49.3717 44.432,51.3118753 44.432,53.7047 C44.432,56.0984189 46.3718579,58.0387 48.765,58.0387 C51.1581421,58.0387 53.098,56.0984189 53.098,53.7047 Z" id="Combined-Shape" fill-rule="nonzero"></path>
    </g>
</svg>